999
BikeCAD by the Bicycle Forest Inc.
0
SECTION
2
HEADER
9
$MEASUREMENT
70
1
9
$EXTMAX
10
1803.701616918495
20
1277.2302849803982
9
$EXTMIN
10
-150
20
-150
9
$LIMMIN
10
-150
20
-150
9
$LIMMAX
10
1803.701616918495
20
1277.2302849803982
9
$VIEWCTR
10
826.8508084592474
20
563.6151424901991
9
$VIEWSIZE
40
1277.2302849803982
9
$CLAYER
8
FRAME
9
$LTSCALE
40
65.3950000000
9
$CELTYPE
6
BYLAYER
9
$DIMSCALE
40
1
9
$DIMASZ
40
18
9
$DIMEXO
40
7.4312500000
9
$DIMDLI
40
45.1820000000
9
$DIMEXE
40
21.4020000000
9
$DIMCEN
40
10.7010000000
9
$DIMTXT
40
15
9
$DIMLFAC
40
1
0
ENDSEC
0
SECTION
2
TABLES
0
TABLE
2
VPORT
70
2
0
VPORT
2
*ACTIVE
70
0
10
0.0
20
0.0
11
1.0
21
1.0
12
826.8508084592474
22
563.6151424901991
13
0.0
23
0.0
14
1.0
24
1.0
15
0.0
25
0.0
16
0.0
26
0.0
36
1.0
17
0.0
27
0.0
37
0.0
40
1427.2302849803982
41
1.368876233554228
42
50.0
43
0.0
44
0.0
50
0.0
51
0.0
71
0
72
100
73
1
74
1
75
0
76
0
77
0
78
0
0
ENDTAB
0
TABLE
2
LTYPE
70
6
0
LTYPE
2
CONTINUOUS
70
64
3
Solid line
72
65
73
0
40
0
0
LTYPE
2
CENTER
70
64
3
____ _ ____ _ ____ _ ____ _ ____ _ ____ _ ____
72
65
73
4
40
0.6
49
0.375
49
-0.075
49
0.075
49
-0.075
0
LTYPE
2
HIDDEN
70
64
3
- - - - - - - - - - - - - - - - - - - -
72
65
73
2
40
0.2
49
0.1
49
-0.1
0
LTYPE
2
PHANTOM
70
64
3
_____ _ _ _____ _ _ _____ _ _ _____
72
65
73
6
40
0.8
49
0.45
49
-0.05
49
0.1
49
-0.05
49
0.1
49
-0.05
0
LTYPE
2
DOT
70
64
3
. . . . . . . . . . . . . . . . . . . .
72
65
73
2
40
0.2
49
0.1
49
-0.1
0
LTYPE
2
DASHED
70
64
3
- - - - - - - - - - - - - - - - - - - -
72
65
73
2
40
0.2
49
0.1
49
-0.1
0
ENDTAB
0
TABLE
2
LAYER
0
LAYER
2
FRAME
70
0
62
5
6
CONTINUOUS
0
LAYER
2
FORK
70
0
62
5
6
CONTINUOUS
0
LAYER
2
CNTR_LINES
70
0
62
40
6
CENTER
0
LAYER
2
CHAINSTAYS
70
0
62
5
6
CONTINUOUS
0
LAYER
2
SEATSTAYS
70
0
62
5
6
CONTINUOUS
0
LAYER
2
WHEELS
70
0
62
6
6
CONTINUOUS
0
LAYER
2
SADDLE
70
0
62
5
6
CONTINUOUS
0
LAYER
2
BRAKE
70
0
62
5
6
CONTINUOUS
0
LAYER
2
HANDLEBAR
70
0
62
5
6
CONTINUOUS
0
LAYER
2
HEADSET
70
0
62
3
6
CONTINUOUS
0
LAYER
2
SEATPOST
70
0
62
3
6
CONTINUOUS
0
LAYER
2
STEM
70
0
62
3
6
CONTINUOUS
0
LAYER
2
CRANK
70
0
62
3
6
CONTINUOUS
0
LAYER
2
PEDAL
70
0
62
3
6
CONTINUOUS
0
LAYER
2
SHOE
70
0
62
6
6
CONTINUOUS
0
LAYER
2
DIMENSIONS
70
0
62
7
6
CONTINUOUS
0
LAYER
2
DIM_TABLE
70
0
62
7
6
CONTINUOUS
0
LAYER
2
LABELS
70
0
62
7
6
CONTINUOUS
0
LAYER
2
BORDER
70
0
62
3
6
CONTINUOUS
0
ENDTAB
0
ENDSEC
0
SECTION
2
BLOCKS
0
BLOCK
8
SADDLE
2
*D9
70
1
10
0
20
0
0
POLYLINE
8
SADDLE
66
1
10
0
20
0
70
1
0
VERTEX
8
SADDLE
10
-95.999999998
20
4.4396739919999995
42
-0.02
0
VERTEX
8
SADDLE
10
0
20
0
42
0.02
0
VERTEX
8
SADDLE
10
80.82306009599999
20
1.988270024
42
-0.1
0
VERTEX
8
SADDLE
10
135.500000016
20
-5.500000012
42
-0.4
0
VERTEX
8
SADDLE
10
146.999999884
20
-24.000000024
42
-0.4
0
VERTEX
8
SADDLE
10
133.37219997
20
-31.99999998
42
0.01
0
VERTEX
8
SADDLE
10
60.159250039999996
20
-30.999999992
42
-0.05
0
VERTEX
8
SADDLE
10
26.403860092
20
-29.000000016
42
0.12
0
VERTEX
8
SADDLE
10
-6.144119978
20
-35.999999984
42
-0.18
0
VERTEX
8
SADDLE
10
-39.999999976
20
-49.500000004
42
-0.17
0
VERTEX
8
SADDLE
10
-86.99999992
20
-34.000000008
42
0.1
0
VERTEX
8
SADDLE
10
-116.999999902
20
-26.0
42
	-0.4
0
VERTEX
8
SADDLE
10
-128.00000009
20
-7.00000002
42
-0.25
0
SEQEND
0
POLYLINE
8
SADDLE
66
1
10
0
20
0
0
VERTEX
8
SADDLE
10
-66.279999948
20
-45.250000016
0
VERTEX
8
SADDLE
10
-56.000000022
20
-55.000000016
42
0.18
0
VERTEX
8
SADDLE
10
-39.999999976
20
-60.999999996
0
VERTEX
8
SADDLE
10
25.000000124000003
20
-50.000000024
42
0.18
0
VERTEX
8
SADDLE
10
39.000000060000005
20
-43.000000004
0
VERTEX
8
SADDLE
10
53.440000048
20
-31.140000007999998
0
SEQEND
0
POLYLINE
8
SADDLE
66
1
10
0
20
0
0
VERTEX
8
SADDLE
10
35.519999952
20
-30.209999976000002
0
VERTEX
8
SADDLE
10
26.00000004
20
-38.000000012
42
-0.18
0
VERTEX
8
SADDLE
10
15.00000013
20
-43.999999992
0
VERTEX
8
SADDLE
10
-35.000000118
20
-52.0
42
-0.18
0
VERTEX
8
SADDLE
10
-43.999999918
20
-48.999999984
0
SEQEND
8
SADDLE
0
ENDBLK
0
BLOCK
8
BRAKE
2
*D6
70
1
10
0
20
0
0
POLYLINE
8
BRAKE
66
1
10
0
20
0
70
1
0
VERTEX
8
BRAKE
10
62.66
20
-17.57
42
-0.1
0
VERTEX
8
BRAKE
10
46.54
20
-53.42
42
-0.35
0
VERTEX
8
BRAKE
10
42.24
20
-54.55
42
0.25
0
VERTEX
8
BRAKE
10
27.34
20
-61.32
42
0.3
0
VERTEX
8
BRAKE
10
27.66
20
-80.16
42
0.35
0
VERTEX
8
BRAKE
10
36.87
20
-77.52
42
-0.02
0
VERTEX
8
BRAKE
10
42.67
20
-69.63
42
-0.08
0
VERTEX
8
BRAKE
10
35.22
20
-81.13
42
0.06
0
VERTEX
8
BRAKE
10
27.23
20
-89.23
42
0.18
0
VERTEX
8
BRAKE
10
26.8
20
-106
42
0.28
0
VERTEX
8
BRAKE
10
35.1
20
-119.76
42
0.35
0
VERTEX
8
BRAKE
10
40.5
20
-112
42
-0.08
0
VERTEX
8
BRAKE
10
47.56
20
-75.36
42
0.09
0
VERTEX
8
BRAKE
10
66
20
-46
42
-0.1
0
VERTEX
8
BRAKE
10
77
20
-20.56
42
-0.12
0
VERTEX
8
BRAKE
10
95.85
20
-10.01
42
0.2
0
VERTEX
8
BRAKE
10
98.45
20
-9.36
42
0.2
0
VERTEX
8
BRAKE
10
108.38
20
0.18
42
0.09
0
VERTEX
8
BRAKE
10
94.53
20
20.54
42
0.3
0
VERTEX
8
BRAKE
10
91.52
20
13.2
42
-0.32
0
VERTEX
8
BRAKE
10
92.82
20
9.01
42
-0.32
0
VERTEX
8
BRAKE
10
84.6
20
6.69
42
0.15
0
SEQEND
0
POLYLINE
8
BRAKE
66
1
10
0
20
0
0
VERTEX
8
BRAKE
10
90.47
20
26.71
42
-0.1
0
VERTEX
8
BRAKE
10
94.53
20
20.54
42
-0.1
0
SEQEND
0
POLYLINE
8
BRAKE
66
1
10
0
20
0
0
VERTEX
8
BRAKE
10
62.66
20
-17.57
42
-0.15
0
VERTEX
8
BRAKE
10
57.47
20
-21.92
42
-0.15
0
VERTEX
8
BRAKE
10
44.26
20
-19.95
42
-0.1
0
SEQEND
0
POLYLINE
8
BRAKE
66
1
10
0
20
0
70
1
0
VERTEX
8
BRAKE
10
0
20
0
42
0.1
0
VERTEX
8
BRAKE
10
11.67
20
-27.39
42
-0.1
0
VERTEX
8
BRAKE
10
16.05
20
-24.96
42
-0.1
0
VERTEX
8
BRAKE
10
35.56
20
-20
42
-0.1
0
VERTEX
8
BRAKE
10
44.26
20
-19.95
42
-0.1
0
VERTEX
8
BRAKE
10
58.5
20
3.38
42
-0.1
0
VERTEX
8
BRAKE
10
90.47
20
26.71
42
0.3
0
VERTEX
8
BRAKE
10
68
20
32.86
42
-0.1
0
VERTEX
8
BRAKE
10
62.6
20
28.22
42
-0.1
0
VERTEX
8
BRAKE
10
23.76
20
24.5
42
-0.15
0
VERTEX
8
BRAKE
10
12.99
20
32.52
42
0.2
0
SEQEND
8
BRAKE
0
ENDBLK
0
BLOCK
8
HANDLEBAR
2
*D4
70
1
10
0
20
0
0
POLYLINE
8
HANDLEBAR
66
1
10
0
20
0
0
VERTEX
8
HANDLEBAR
10
37.047251240997156
20
-124.0
0
VERTEX
8
HANDLEBAR
10
-29.0
20
-124.0
0
VERTEX
8
HANDLEBAR
10
-29.0
20
-154.0
0
VERTEX
8
HANDLEBAR
10
37.047251240997156
20
-154.0
0
SEQEND
8
HANDLEBAR
0
ARC
8
HANDLEBAR
10
37.047251240997156
20
-99.0
40
25.0
50
-90
51
-22.000000000000007
0
ARC
8
HANDLEBAR
10
37.047251240997156
20
-99.0
40
55.0
50
-90
51
-22.000000000000007
0
LINE
8
HANDLEBAR
10
60.22684760516684
20
-108.3651648353978
11
69.45143490983756
21
-85.53351006941645
0
LINE
8
HANDLEBAR
10
88.04236324217047
20
-119.60336263787516
11
97.26695054684117
21
-96.77170787189381
0
ARC
8
HANDLEBAR
10
37.0
20
-72.42227929985953
40
35.0
50
-22.000000000000007
51
65.0
0
ARC
8
HANDLEBAR
10
37.0
20
-72.42227929985953
40
65.0
50
-22.000000000000007
51
65.0
0
POLYLINE
8
HANDLEBAR
66
1
10
0
20
0
0
VERTEX
8
HANDLEBAR
10
64.47018701314546
20
-13.512273142477277
0
VERTEX
8
HANDLEBAR
10
6.339273926110492
20
13.59461680554975
42
1
0
VERTEX
8
HANDLEBAR
10
-6.339273926110492
20
-13.59461680554975
0
VERTEX
8
HANDLEBAR
10
51.79163916092448
20
-40.70150675357678
0
SEQEND
8
HANDLEBAR
0
ENDBLK
0
BLOCK
8
HEADSET
2
*D5
70
1
10
0
20
0
0
POLYLINE
8
HEADSET
66
1
10
0
20
0
70
1
0
VERTEX
8
HEADSET
10
1139.6430129968305
20
839.1757668160733
42
1
0
VERTEX
8
HEADSET
10
1136.4269242448804
20
849.6951191316667
0
VERTEX
8
HEADSET
10
1093.393210226544
20
836.5383924191436
42
1
0
VERTEX
8
HEADSET
10
1096.609298978494
20
826.0190401035502
0
SEQEND
8
HEADSET
0
POLYLINE
8
HEADSET
66
1
10
0
20
0
70
1
0
VERTEX
8
HEADSET
10
1136.4269242448804
20
849.6951191316667
0
VERTEX
8
HEADSET
10
1131.6658143131942
20
853.4679605301885
0
VERTEX
8
HEADSET
10
1095.2306031110027
20
842.3285985802522
0
VERTEX
8
HEADSET
10
1093.393210226544
20
836.5383924191436
0
SEQEND
8
HEADSET
0
POLYLINE
8
HEADSET
66
1
10
0
20
0
70
1
0
VERTEX
8
HEADSET
10
1131.6658143131942
20
853.4679605301885
0
VERTEX
8
HEADSET
10
1128.7420972659668
20
863.0310080898189
0
VERTEX
8
HEADSET
10
1092.3068860637752
20
851.8916461398826
0
VERTEX
8
HEADSET
10
1095.2306031110027
20
842.3285985802522
0
SEQEND
8
HEADSET
0
POLYLINE
8
HEADSET
66
1
10
0
20
0
70
1
0
VERTEX
8
HEADSET
10
1139.0031961632908
20
687.3548504889101
42
0.5
0
VERTEX
8
HEADSET
10
1142.5116566199636
20
675.8791934173537
0
VERTEX
8
HEADSET
10
1185.5453706383
20
689.0359201298768
42
0.5
0
VERTEX
8
HEADSET
10
1182.0369101816273
20
700.5115772014332
0
SEQEND
8
HEADSET
0
ENDBLK
0
BLOCK
8
FORK
2
*D7
70
1
10
0
20
0
0
ARC
8
FORK
10
2420.55114326084
20
973.4962256839644
40
1264.2100384615374
50
-163.0
51
-150.03160471594882
0
ARC
8
FORK
10
1952.7049842375104
20
830.4613006679451
40
814.9871666666662
50
-163.0
51
-142.1928845223141
0
ARC
8
FORK
10
1316.701616918495
20
337.0
40
10.0
50
-142.1928845223141
51
29.968395284051184
0
POLYLINE
8
FORK
66
1
10
0
20
0
0
VERTEX
8
FORK
10
1173.3288807053384
20
592.1821134224589
0
VERTEX
8
FORK
10
1167.7591997303703
20
610.3997190235547
0
VERTEX
8
FORK
10
1142.5116566199638
20
675.8791934173536
0
VERTEX
8
FORK
10
1185.5453706383003
20
689.0359201298767
0
VERTEX
8
FORK
10
1211.58107094386
20
603.8769816113684
0
SEQEND
8
FORK
0
ENDBLK
0
BLOCK
8
CRANK
2
*D8
70
1
10
0
20
0
0
POLYLINE
8
CRANK
66
1
10
0
20
0
70
1
0
VERTEX
8
CRANK
10
0
20
14.3
0
VERTEX
8
CRANK
10
172.5
20
14.3
42
-1
0
VERTEX
8
CRANK
10
172.5
20
-14.3
0
VERTEX
8
CRANK
10
0
20
-14.3
42
-1
0
SEQEND
8
CRANK
0
ENDBLK
0
BLOCK
8
PEDAL
2
*D10
70
1
10
0
20
0
0
POLYLINE
8
PEDAL
66
1
10
0
20
0
70
1
0
VERTEX
8
PEDAL
10
13
20
8.5
0
VERTEX
8
PEDAL
10
-13
20
8.5
42
1
0
VERTEX
8
PEDAL
10
-13
20
-8.5
0
VERTEX
8
PEDAL
10
13
20
-8.5
42
1
0
SEQEND
8
PEDAL
0
ENDBLK
0
BLOCK
8
DIM_TABLE
2
*D14
70
1
10
0
20
0
0
TEXT
8
DIM_TABLE
10
0
20
-7.0
11
322.36076679155167
21
-7.0
40
12
1
BB DROP =
72
2
0
TEXT
8
DIM_TABLE
10
0
20
-37.5
11
322.36076679155167
21
-37.5
40
12
1
BB HEIGHT =
72
2
0
TEXT
8
DIM_TABLE
10
0
20
-67.5
11
322.36076679155167
21
-67.5
40
12
1
CHAIN STAY LENGTH =
72
2
0
TEXT
8
DIM_TABLE
10
0
20
-97.5
11
322.36076679155167
21
-97.5
40
12
1
DOWN TUBE %%C FRNT/REAR =
72
2
0
TEXT
8
DIM_TABLE
10
0
20
-127.5
11
322.36076679155167
21
-127.5
40
12
1
DOWN TUBE LENGTH (C-C) =
72
2
0
TEXT
8
DIM_TABLE
10
0
20
-157.5
11
322.36076679155167
21
-157.5
40
12
1
FORK LENGTH =
72
2
0
TEXT
8
DIM_TABLE
10
330.17557325922564
20
-7.0
11
488.4254042296237
21
-7.0
40
12
1
70.0
72
0
0
TEXT
8
DIM_TABLE
10
330.17557325922564
20
-37.5
11
488.4254042296237
21
-37.5
40
12
1
267.0
72
0
0
TEXT
8
DIM_TABLE
10
330.17557325922564
20
-67.5
11
488.4254042296237
21
-67.5
40
12
1
405.0
72
0
0
TEXT
8
DIM_TABLE
10
330.17557325922564
20
-97.5
11
488.4254042296237
21
-97.5
40
12
1
38.1/34.9
72
0
0
TEXT
8
DIM_TABLE
10
330.17557325922564
20
-127.5
11
488.4254042296237
21
-127.5
40
12
1
627.2
72
0
0
TEXT
8
DIM_TABLE
10
330.17557325922564
20
-157.5
11
488.4254042296237
21
-157.5
40
12
1
375.0
72
0
0
TEXT
8
DIM_TABLE
10
488.4254042296237
20
-7.0
11
810.7861710211754
21
-7.0
40
12
1
FORK OFFSET (RAKE) =
72
2
0
TEXT
8
DIM_TABLE
10
488.4254042296237
20
-37.5
11
810.7861710211754
21
-37.5
40
12
1
FRONT CENTRE DISTANCE =
72
2
0
TEXT
8
DIM_TABLE
10
488.4254042296237
20
-67.5
11
810.7861710211754
21
-67.5
40
12
1
HEAD TUBE %%c =
72
2
0
TEXT
8
DIM_TABLE
10
488.4254042296237
20
-97.5
11
810.7861710211754
21
-97.5
40
12
1
HEAD TUBE LENGTH =
72
2
0
TEXT
8
DIM_TABLE
10
488.4254042296237
20
-127.5
11
810.7861710211754
21
-127.5
40
12
1
HEAD ANGLE =
72
2
0
TEXT
8
DIM_TABLE
10
488.4254042296237
20
-157.5
11
810.7861710211754
21
-157.5
40
12
1
SEAT TUBE %%c AT BOTTOM =
72
2
0
TEXT
8
DIM_TABLE
10
818.6009774888494
20
-157.5
11
976.8508084592474
21
-157.5
40
12
1
28.6
72
0
0
TEXT
8
DIM_TABLE
10
976.8508084592474
20
-7.0
11
1299.2115752507991
21
-7.0
40
12
1
SEAT TUBE %%c AT TOP =
72
2
0
TEXT
8
DIM_TABLE
10
1307.0263817184732
20
-7.0
11
1465.276212688871
21
-7.0
40
12
1
31.8
72
0
0
TEXT
8
DIM_TABLE
10
818.6009774888494
20
-7.0
11
976.8508084592474
21
-7.0
40
12
1
45.0
72
0
0
TEXT
8
DIM_TABLE
10
818.6009774888494
20
-37.5
11
976.8508084592474
21
-37.5
40
12
1
585.0
72
0
0
TEXT
8
DIM_TABLE
10
818.6009774888494
20
-67.5
11
976.8508084592474
21
-67.5
40
12
1
45.0
72
0
0
TEXT
8
DIM_TABLE
10
818.6009774888494
20
-97.5
11
976.8508084592474
21
-97.5
40
12
1
145.0
72
0
0
TEXT
8
DIM_TABLE
10
818.6009774888494
20
-127.5
11
976.8508084592474
21
-127.5
40
12
1
73.0
72
0
0
TEXT
8
DIM_TABLE
10
976.8508084592474
20
-37.5
11
1299.2115752507991
21
-37.5
40
12
1
SEAT TUBE LENGTH (C-C) =
72
2
0
TEXT
8
DIM_TABLE
10
976.8508084592474
20
-67.5
11
1299.2115752507991
21
-67.5
40
12
1
SEAT TUBE LENGTH (C-T) =
72
2
0
TEXT
8
DIM_TABLE
10
976.8508084592474
20
-97.5
11
1299.2115752507991
21
-97.5
40
12
1
SEAT ANGLE =
72
2
0
TEXT
8
DIM_TABLE
10
976.8508084592474
20
-127.5
11
1299.2115752507991
21
-127.5
40
12
1
SETBACK =
72
2
0
TEXT
8
DIM_TABLE
10
976.8508084592474
20
-157.5
11
1299.2115752507991
21
-157.5
40
12
1
TOP TUBE ANGLE =
72
2
0
TEXT
8
DIM_TABLE
10
1307.0263817184732
20
-37.5
11
1465.276212688871
21
-37.5
40
12
1
466.0
72
0
0
TEXT
8
DIM_TABLE
10
1307.0263817184732
20
-67.5
11
1465.276212688871
21
-67.5
40
12
1
515.3
72
0
0
TEXT
8
DIM_TABLE
10
1307.0263817184732
20
-97.5
11
1465.276212688871
21
-97.5
40
12
1
74.0
72
0
0
TEXT
8
DIM_TABLE
10
1307.0263817184732
20
-127.5
11
1465.276212688871
21
-127.5
40
12
1
154.3
72
0
0
TEXT
8
DIM_TABLE
10
1307.0263817184732
20
-157.5
11
1465.276212688871
21
-157.5
40
12
1
9.8
72
0
0
TEXT
8
DIM_TABLE
10
1465.276212688871
20
-7.0
11
1787.636979480423
21
-7.0
40
12
1
TOP TUBE %%C =
72
2
0
TEXT
8
DIM_TABLE
10
1465.276212688871
20
-37.5
11
1787.636979480423
21
-37.5
40
12
1
TOP TUBE LENGTH (C-C) =
72
2
0
TEXT
8
DIM_TABLE
10
1465.276212688871
20
-67.5
11
1787.636979480423
21
-67.5
40
12
1
TOP TUBE LENGTH (EFFECTIVE) =
72
2
0
TEXT
8
DIM_TABLE
10
1795.4517859480968
20
-7.0
11
1953.701616918495
21
-7.0
40
12
1
31.8
72
0
0
TEXT
8
DIM_TABLE
10
1795.4517859480968
20
-37.5
11
1953.701616918495
21
-37.5
40
12
1
526.9
72
0
0
TEXT
8
DIM_TABLE
10
1795.4517859480968
20
-67.5
11
1953.701616918495
21
-67.5
40
12
1
544.9
72
0
0
ENDBLK
0
BLOCK
8
DIMENSIONS
6
BYBLOCK
2
*D0
70
1
10
0
20
0
0
TEXT
8
DIMENSIONS
6
BYBLOCK
10
-41.50000000000003
20
691.1325933781109
40
15
1
%%c674.0
72
5
11
50.49999999999997
21
691.1325933781109
0
LINE
8
DIMENSIONS
6
BYBLOCK
10
168.49999999999997
20
628.8505610753558
11
128.49999999999997
21
698.1325933781109
0
LINE
8
DIMENSIONS
6
BYBLOCK
10
128.49999999999997
20
698.1325933781109
11
58.49999999999997
21
698.1325933781109
0
SOLID
8
DIMENSIONS
6
BYBLOCK
10
154.31580643507897
20
639.9324676312176
11
165.99488418271878
21
646.6753863127041
12
168.49999999999997
22
628.8505610753558
13
168.49999999999997
23
 628.8505610753558
0
ENDBLK
0
BLOCK
8
DIMENSIONS
6
BYBLOCK
2
*D1
70
1
10
0
20
0
0
TEXT
8
DIMENSIONS
6
BYBLOCK
10
1603.201616918495
20
691.1325933781109
40
15
1
%%c674.0
72
5
11
1695.201616918495
21
691.1325933781109
0
LINE
8
DIMENSIONS
6
BYBLOCK
10
1485.201616918495
20
628.8505610753558
11
1525.201616918495
21
698.1325933781109
0
LINE
8
DIMENSIONS
6
BYBLOCK
10
1525.201616918495
20
698.1325933781109
11
1595.201616918495
21
698.1325933781109
0
SOLID
8
DIMENSIONS
6
BYBLOCK
10
1499.385810483416
20
639.9324676312176
11
1487.706732735776
21
646.6753863127041
12
1485.201616918495
22
628.8505610753558
13
1485.201616918495
23
628.8505610753558
0
ENDBLK
0
BLOCK
8
DIMENSIONS
62
7
6
BYBLOCK
2
*D2
70
1
10
0
20
0
0
TEXT
8
DIMENSIONS
6
BYBLOCK
10
776.8508084592474
20
161.5
40
15
1
979.7
72
5
11
876.8508084592474
21
161.5
0
LINE
8
DIMENSIONS
6
BYBLOCK
10
1316.701616918495
20
337.0
11
1316.701616918495
21
150.5
0
LINE
8
DIMENSIONS
6
BYBLOCK
10
337.0
20
337.0
11
337.0
21
150.5
0
LINE
8
DIMENSIONS
6
BYBLOCK
10
1316.701616918495
20
168.5
11
886.8508084592474
21
168.5
0
LINE
8
DIMENSIONS
6
BYBLOCK
10
337.0
20
168.5
11
766.8508084592474
21
168.5
0
SOLID
8
DIMENSIONS
6
BYBLOCK
10
1300.0123075362926
20
175.24291868148643
11
1300.0123075362926
21
161.75708131851357
12
1316.701616918495
22
168.5
13
1316.701616918495
23
168.5
0
SOLID
8
DIMENSIONS
6
BYBLOCK
10
353.68930938220217
20
175.24291868148643
11
353.68930938220217
21
161.75708131851357
12
337.0
22
168.5
13
337.0
23
168.5
0
ENDBLK
8
DIMENSIONS
0
ENDSEC
0
SECTION
2
ENTITIES
0
INSERT
8
SADDLE
2
*D9
10
538.151991526242
20
957.2302849803983
50
0.0
0
INSERT
8
BRAKE
2
*D6
10
1297.5654265555615
20
867.1011878947876
50
34.76
0
INSERT
8
HANDLEBAR
2
*D4
10
1202.0045336990313
20
898.9724252825695
50
15.0
0
INSERT
8
HEADSET
2
*D5
10
0
20
0
0
INSERT
8
FORK
2
*D7
10
0
20
0
0
INSERT
8
CRANK
2
*D8
10
735.9047505357639
20
267.0
50
0.0
0
INSERT
8
PEDAL
2
*D10
10
908.4047505357639
20
267.0
50
-6.8117647058823545
0
INSERT
8
DIM_TABLE
62
5
2
*D14
10
-150
20
1257.2302849803982
0
DIMENSION
8
DIMENSIONS
2
*D0
10
168.49999999999997
20
628.8505610753558
11
50.49999999999997
21
698.1325933781109
70
3
15
505.5
25
45.14943892464419
0
DIMENSION
8
DIMENSIONS
2
*D1
10
1485.201616918495
20
628.8505610753558
11
1603.201616918495
21
698.1325933781109
70
3
15
1148.201616918495
25
45.14943892464419
0
DIMENSION
8
DIMENSIONS
2
*D2
10
1316.701616918495
20
168.5
11
776.8508084592474
21
168.5
13
1316.701616918495
23
337.0
14
337.0
24
337.0
50
180.000000
0
TEXT
8
LABELS
10
0
20
-112.5
11
1793.701616918495
21
-112.5
40
15
1
BikeCAD by the Bicycle Forest
72
2
0
TEXT
8
LABELS
10
0
20
-143.0
11
1793.701616918495
21
-143.0
40
15
1
www.bikeforest.com
72
2
0
TEXT
8
LABELS
10
0
20
-143.0
11
1793.701616918495
21
-82.5
40
15
1
Mon, Feb 27, 2012
72
2
0
LINE
8
BORDER
10
-150
20
-150
11
-150
21
1277.2302849803982
0
LINE
8
BORDER
10
-150
20
-150
11
1803.701616918495
21
-150
0
LINE
8
BORDER
10
-150
20
1277.2302849803982
11
1803.701616918495
21
1277.2302849803982
0
LINE
8
BORDER
10
1803.701616918495
20
-150
11
1803.701616918495
21
1277.2302849803982
0
LINE
8
CNTR_LINES
10
352.0
20
332.0
11
735.9047505357639
21
267.0
0
LINE
8
CNTR_LINES
10
347.0
20
350.0
11
593.6789858886095
21
715.4461850378899
0
LINE
8
CNTR_LINES
10
607.4577427250424
20
714.9479503072566
11
1126.5612008995968
21
805.0076147225797
0
LINE
8
CNTR_LINES
10
1118.1261559876623
20
832.5974034598117
11
1273.6679029001582
21
323.84327328747685
0
LINE
8
CNTR_LINES
10
1316.701616918495
20
337.0
11
1261.8819222829818
21
516.3071417430691
0
LINE
8
CNTR_LINES
10
1145.973013514877
20
741.5144366003663
11
735.9047505357639
21
267.0
0
LINE
8
CNTR_LINES
10
593.8752000479379
20
762.3159058234766
11
735.9047505357639
21
267.0
0
LINE
8
SEATPOST
10
572.438228588652
20
886.4157015109844
11
655.1294353337518
21
598.0371927294887
0
LINE
8
SEATPOST
10
546.2919104591297
20
878.918365432762
11
628.9831172042294
21
590.5398566512663
0
LINE
8
SEATPOST
10
572.438228588652
20
886.4157015109844
11
546.2919104591297
21
878.918365432762
0
LINE
8
SEATPOST
10
655.1294353337518
20
598.0371927294887
11
628.9831172042294
21
590.5398566512663
0
LINE
8
FRAME
10
718.3046119746928
20
276.4992169483118
11
711.6893154350848
21
299.5694976508315
0
LINE
8
FRAME
10
597.9777514395121
20
690.3241199150629
11
711.6893154350848
21
299.5694976508315
0
LINE
8
FRAME
10
597.9777514395121
20
690.3241199150629
11
578.5911390825187
21
757.9332718659863
0
LINE
8
FRAME
10
609.1592610133572
20
766.6985397809668
11
578.5911390825187
21
757.9332718659863
0
LINE
8
FRAME
10
609.1592610133572
20
766.6985397809668
11
618.8065677775699
21
733.054380303524
0
LINE
8
FRAME
10
1099.532976307218
20
816.4559804007542
11
618.8065677775699
21
733.054380303524
0
LINE
8
FRAME
10
1108.9034256098682
20
785.8066400219229
11
627.6227375473234
21
702.3088775355981
0
LINE
8
FRAME
10
1099.532976307218
20
816.4559804007542
11
1096.609298978494
21
826.0190401035502
0
LINE
8
FRAME
10
1096.609298978494
20
826.0190401035502
11
1139.6430129968305
21
839.1757668160733
0
LINE
8
FRAME
10
1139.6430129968305
20
839.1757668160733
11
1182.0369101816273
21
700.5115772014332
0
LINE
8
FRAME
10
1139.0031961632908
20
687.3548504889101
11
1182.0369101816273
21
700.5115772014332
0
LINE
8
FRAME
10
1139.0031961632908
20
687.3548504889101
11
1135.1731065302824
21
699.8824365853454
0
LINE
8
FRAME
10
755.497414176617
20
262.9840902081353
11
781.4882541044067
21
293.0596407408855
0
LINE
8
FRAME
10
1091.0377179736583
20
648.81074700143
11
781.4882541044067
21
293.0596407408855
0
LINE
8
FRAME
10
1091.0377179736583
20
648.81074700143
11
1135.1731065302824
21
699.8824365853454
0
LINE
8
FRAME
10
741.3286984044978
20
299.9641412356599
11
755.0822990454637
21
315.8792712686808
0
LINE
8
FRAME
10
1062.210586519626
20
673.7227218756133
11
755.0822990454637
21
315.8792712686808
0
LINE
8
FRAME
10
1062.210586519626
20
673.7227218756133
11
1122.0137948788579
21
742.924579915821
0
LINE
8
FRAME
10
1122.0137948788579
20
742.924579915821
11
1108.9034256098682
21
785.8066400219229
0
LINE
8
FRAME
10
627.6227375473234
20
702.3088775355981
11
628.5458733703506
21
699.0893878300434
0
LINE
8
FRAME
10
739.1813999389208
20
307.4527260271977
11
628.5458733703506
21
699.0893878300434
0
LINE
8
FRAME
10
739.1813999389208
20
307.4527260271977
11
745.7966964785287
21
284.38244532467803
0
POLYLINE
8
FRAME
66
1
10
0
20
0
0
VERTEX
8
FRAME
10
590.6213880711084
20
726.109216115909
0
VERTEX
8
FRAME
10
451.8502583695723
20
520.5247000285705
0
VERTEX
8
FRAME
10
347.20727518368324
20
361.92505920313306
0
VERTEX
8
FRAME
10
341.61250283519837
20
353.63660202651516
0
VERTEX
8
FRAME
10
352.38749716480163
20
346.36339797348484
0
VERTEX
8
FRAME
10
357.9822695132865
20
354.65185515010273
0
VERTEX
8
FRAME
10
465.94063556982275
20
511.0135870361462
0
VERTEX
8
FRAME
10
596.7365561316051
20
704.783113109219
0
SEQEND
0
POLYLINE
8
FRAME
66
1
10
0
20
0
0
VERTEX
8
FRAME
10
725.1748318479902
20
283.87805809190627
0
VERTEX
8
FRAME
10
551.6725280818721
20
313.2542263591501
0
VERTEX
8
FRAME
10
363.2786398740757
20
338.71135475078694
0
VERTEX
8
FRAME
10
353.4189641630483
20
340.3807243543732
0
VERTEX
8
FRAME
10
350.5810358369517
20
323.6192756456268
0
VERTEX
8
FRAME
10
360.440711547979
20
321.9499060420405
0
VERTEX
8
FRAME
10
546.7145003592209
20
283.97098949739893
0
VERTEX
8
FRAME
10
720.2168076618648
20
254.59482171086296
0
SEQEND
0
POLYLINE
8
STEM
66
1
10
0
20
0
0
VERTEX
8
STEM
10
1198.3995559294947
20
882.8710546800045
0
VERTEX
8
STEM
10
1127.2969657456406
20
867.7577325846921
0
VERTEX
8
STEM
10
1128.742097265967
20
863.0310080898188
0
VERTEX
8
STEM
10
1092.3068860637754
20
851.8916461398825
0
VERTEX
8
STEM
10
1080.612017874866
20
890.1438363784039
0
VERTEX
8
STEM
10
1117.0472290770576
20
901.2831983283402
0
VERTEX
8
STEM
10
1118.4923428339082
20
896.5564700577233
0
VERTEX
8
STEM
10
1192.1622052049618
20
912.2154827020187
0
SEQEND
0
ARC
8
STEM
10
1202.0045336990313
20
898.9724252825695
40
15.0
50
-78.0
51
102.0
0
CIRCLE
8
STEM
10
1202.0045336990313
20
898.9724252825695
40
15.0
0
CIRCLE
8
WHEELS
10
337.0
20
337.0
40
337.0
0
CIRCLE
8
WHEELS
10
1316.701616918495
20
337.0
40
337.0
0
CIRCLE
8
FRAME
10
735.9047505357639
20
267.0
40
20.0
0
ENDSEC
0
EOF